<svg width="461" height="352" viewBox="0 0 461 352" fill="none" xmlns="http://www.w3.org/2000/svg">
<g clip-path="url(#clip0_134_1745)">
<path d="M429.811 303.438L430.599 285.743C438.814 281.358 447.976 279.042 457.291 278.995C444.471 289.463 446.073 309.639 437.382 323.715C434.637 328.085 430.944 331.781 426.574 334.531C422.205 337.281 417.272 339.014 412.141 339.601L401.413 346.16C399.941 337.965 400.265 329.548 402.364 321.49C404.463 313.431 408.286 305.923 413.57 299.483C416.57 295.899 420.01 292.707 423.809 289.981C426.378 296.747 429.811 303.438 429.811 303.438Z" fill="#F2F2F2"/>
<path d="M267.132 350.565C261.667 350.177 260.242 351.253 251.976 350.565H236.82L238.791 314.343L262.651 323.891L381.222 326.798L381.152 326.999C381.099 327.154 375.834 342.532 379.949 348.356L380.12 348.597L379.787 348.6L271.017 349.596C269.829 349.607 268.31 350.649 267.132 350.565Z" fill="#F2F2F2"/>
<path d="M273.282 351.039C262.727 350.289 251.797 354.387 242.675 349.76L235.383 350.201L235.363 350.14C235.306 349.972 231.861 322.905 238.825 312.41L239.131 311.948L239.371 314.434L237.075 348.152L242.163 346.456C254.52 352.264 269.216 348.428 283.36 348.375L379.61 348.02C381.626 348.013 383.306 349.389 383.359 351.087L383.365 351.253L279.095 351.245C277.151 351.245 275.213 351.176 273.282 351.039Z" fill="#FDBA21"/>
<path d="M374.536 334.103L266.222 331.953L266.111 331.912L240.52 322.334L241.003 321.045L266.484 330.583L374.564 332.727L374.536 334.103Z" fill="#E6E6E6"/>
<path d="M373.958 339.896L265.644 337.746L265.533 337.704L239.942 328.126L240.425 326.838L265.907 336.375L373.986 338.52L373.958 339.896Z" fill="#E6E6E6"/>
<path d="M373.381 345.689L265.066 343.538L264.955 343.497L239.364 333.918L239.847 332.629L265.329 342.167L373.408 344.313L373.381 345.689Z" fill="#E6E6E6"/>
<path d="M274.03 327.172C263.987 326.495 254.196 323.736 245.279 319.071L237.772 315.094L237.968 313.128C238.023 312.84 238.182 312.581 238.416 312.403C238.65 312.225 238.941 312.14 239.234 312.164L239.897 312.172L340.911 313.656C347.522 313.738 354.073 314.926 360.291 317.169L382.301 325.149L382.289 325.265C382.104 327.117 380.234 328.549 378.031 328.523L278.53 327.359C277.025 327.341 275.525 327.279 274.03 327.172Z" fill="#E6E6E6"/>
<path d="M382.089 325.575L382.066 325.574L260.933 322.802L260.849 322.763L239.009 312.663L239.231 312.325L239.894 312.333L261.135 322.162L381.146 324.906L382.108 324.928L382.089 325.575Z" fill="#FDBA21"/>
<path d="M287.918 313.04L286.381 313.018L251.666 312.505L250.021 312.482C257.952 320.916 275.491 323.026 301.198 319.759L287.918 313.04Z" fill="#FDBA21"/>
<path d="M385.522 111.328L387.64 116.248L384.178 133.72L348.868 128.817L349.15 107.512L349.859 102.846L385.522 111.328Z" fill="#FFB6B6"/>
<path d="M403.765 337.768H395.975L392.267 307.761H403.765V337.768Z" fill="#FFB6B6"/>
<path d="M380.593 347.925C380.593 348.806 380.944 349.651 381.568 350.274C382.192 350.897 383.038 351.248 383.921 351.248H398.741L401.296 345.982L402.288 351.248H407.874L406.304 332.437L403.765 332.289L395.234 331.782L393.859 331.696V337.025L382.03 345.186C381.587 345.492 381.224 345.901 380.974 346.378C380.723 346.855 380.593 347.386 380.593 347.925Z" fill="#2F2E41"/>
<path d="M331.762 303.368H323.971L319.389 259.19L334.026 258.317L331.762 303.368Z" fill="#FFB6B6"/>
<path d="M308.589 313.525C308.59 314.406 308.94 315.251 309.564 315.874C310.188 316.497 311.035 316.848 311.917 316.848H326.738L329.292 311.582L330.285 316.848H335.871L334.3 298.037L332.035 297.904L323.355 297.382L321.855 297.296V302.625L310.026 310.786C309.583 311.092 309.22 311.501 308.97 311.978C308.719 312.455 308.589 312.986 308.589 313.525Z" fill="#2F2E41"/>
<path d="M407.071 311.891H407.041L405.543 263.099C406.512 261.232 407.005 259.153 406.975 257.05C406.946 254.946 406.396 252.883 405.375 251.043L405.161 250.655L405.717 248.08C406.431 244.772 406.104 241.325 404.779 238.211L403.381 192.697C408.374 160.379 384.578 139.302 384.578 139.302L386.765 122.363L348.275 123.237L348.93 139.302L341.277 165.562C337.249 204.75 310.142 229.381 314.262 266.857C314.271 266.964 314.255 267.072 314.215 267.173C313.797 268.442 313.65 269.785 313.783 271.115C313.917 272.445 314.327 273.732 314.989 274.894C315.161 275.19 315.279 275.514 315.338 275.851C316.186 282.421 316.297 274.111 317.422 280.622L317.203 280.733C316.415 281.005 316.077 282.095 316.448 283.168C316.819 284.242 317.758 284.892 318.546 284.62L339.122 284.84C339.91 284.568 340.248 283.478 339.877 282.404C339.506 281.331 338.567 280.681 337.779 280.953L336.498 281.599L338.64 274.602L339.391 273.902C339.75 273.566 340.029 273.154 340.207 272.696C340.385 272.238 340.456 271.745 340.416 271.255C340.376 270.766 340.226 270.291 339.977 269.868C339.727 269.444 339.385 269.082 338.976 268.81L341.109 257.439L340.806 248.839L341.43 239.082L368.428 200.014L379.351 253.979L390.508 312.434C390.247 312.669 390.052 312.966 389.94 313.298C389.828 313.629 389.803 313.984 389.868 314.328C389.97 314.809 390.237 315.239 390.623 315.544C391.008 315.85 391.488 316.012 391.98 316.003H407.126C407.443 316.003 407.757 315.929 408.041 315.788C408.326 315.647 408.574 315.443 408.766 315.19C408.958 314.938 409.089 314.645 409.15 314.333C409.21 314.022 409.197 313.701 409.113 313.395C408.985 312.955 408.716 312.57 408.347 312.298C407.978 312.026 407.53 311.883 407.071 311.891Z" fill="#2F2E41"/>
<path d="M393.602 28.3045C393.604 31.4197 392.839 34.4875 391.376 37.2387C389.913 39.9899 387.795 42.3403 385.21 44.0836C382.625 45.8269 379.651 46.9098 376.549 47.2373C373.447 47.5647 370.312 47.1267 367.419 45.9616C364.526 44.7966 361.964 42.9401 359.957 40.5552C357.95 38.1703 356.56 35.3299 355.909 32.2833C355.258 29.2368 355.366 26.0772 356.223 23.0819C357.081 20.0867 358.661 17.3474 360.826 15.1044L360.917 15.0132C361.07 14.8533 361.222 14.6934 361.382 14.5411L361.385 14.5406L361.387 14.5389L361.389 14.5364L361.39 14.5335C361.608 14.3741 361.81 14.1931 361.992 13.993C364.564 10.403 367.481 7.39272 374.546 9.27336C384.718 11.9809 393.602 17.7916 393.602 28.3045Z" fill="#2F2E41"/>
<path d="M288.922 20.1575C288.879 21.1757 289.06 22.191 289.452 23.1318C289.844 24.0726 290.438 24.9162 291.192 25.603C291.946 26.2897 292.842 26.8031 293.816 27.1068C294.79 27.4105 295.819 27.4973 296.83 27.3609L345.975 67.6409L353.482 54.4643L302.813 19.0137C302.471 17.3322 301.524 15.8344 300.15 14.8042C298.776 13.7739 297.071 13.2827 295.359 13.4237C293.647 13.5647 292.046 14.328 290.859 15.5691C289.673 16.8102 288.984 18.4427 288.922 20.1575Z" fill="#FFB6B6"/>
<path d="M366.727 79.5199C366.727 79.5199 366.711 78.0692 358.899 78.125C349.201 78.1943 322.493 64.29 324.829 51.195C323.72 51.6956 322.476 51.8134 321.292 51.5299C320.109 51.2463 319.053 50.5776 318.292 49.6291L331.294 37.127C335.374 37.4022 335.416 40.1288 335.066 41.6944L345.516 45.8412L372.732 61.4568L367.926 77.1424L366.727 79.5199Z" fill="#B46C10"/>
<path d="M369.851 48.6662C378.676 48.6662 385.831 41.5214 385.831 32.7078C385.831 23.8942 378.676 16.7493 369.851 16.7493C361.026 16.7493 353.872 23.8942 353.872 32.7078C353.872 41.5214 361.026 48.6662 369.851 48.6662Z" fill="#FFB7B7"/>
<path d="M347.889 112.083C347.006 113.26 346.556 114.704 346.613 116.172C346.669 117.641 347.23 119.046 348.201 120.151C348.209 120.619 348.28 121.072 348.944 122.749C349.031 122.912 349.133 123.066 349.248 123.209C349.27 123.244 349.293 123.278 349.319 123.311C350.018 124.214 350.991 124.868 352.092 125.176L381.343 133.329L385.21 134.406L385.89 134.593L386.265 129.319C387.134 128.599 387.717 127.592 387.908 126.48C388.098 125.368 387.884 124.224 387.304 123.256L386.765 122.367L389.905 113.932L390.21 113.098L398.218 91.571L398.226 90.1353L398.241 88.6529L398.32 78.307C398.323 75.0463 397.57 71.8291 396.12 68.9077C394.67 65.9864 392.561 63.4404 389.96 61.4696C387.591 59.6616 384.86 58.3843 381.952 57.7245L381.89 57.7166L378.725 53.4644L365.889 54.744L364.827 56.9208L363.538 59.5424L354.233 65.0742L351.053 72.4553L348.905 77.4488C345.576 79.8363 343.592 82.9026 343.022 86.5541C341.803 94.3097 347.241 102.073 347.889 102.962L348.053 111.865L347.889 112.083Z" fill="#B46C10"/>
<path d="M386.574 36.8914C386.43 36.8685 386.285 36.838 386.14 36.8152C383.647 36.3737 381.155 35.9398 378.67 35.4906L378.441 29.8651L375.43 34.9044C368.562 37.1806 362.137 35.8941 356.092 33.0547C354.098 32.1094 352.164 31.0442 350.299 29.8651C349.685 20.351 353.536 14.2602 360.704 14.899C360.965 14.9223 361.153 14.6554 361.382 14.5411L361.385 14.5406L361.387 14.5389L361.389 14.5364L361.39 14.5335C361.778 14.3508 362.175 14.1757 362.571 14.0159C365.674 12.8048 369.058 12.4981 372.329 13.1314C375.599 13.7647 378.623 15.3121 381.048 17.5937C385.926 22.245 388.122 29.926 386.574 36.8914Z" fill="#2F2E41"/>
<path d="M386.14 36.8152C386.14 36.8152 381.406 19.1695 361.115 15.0968C361.092 15.0893 361.016 15.0588 360.917 15.0132C360.856 14.9751 360.78 14.937 360.704 14.899C360.932 14.7695 361.153 14.6554 361.382 14.5411L361.385 14.5406L361.387 14.5389L361.389 14.5364L361.39 14.5335C361.588 14.3508 361.786 14.1681 361.992 13.993L362.571 14.0159C362.571 14.0159 382.931 10.7958 386.14 36.8152Z" fill="#FD6584"/>
<path d="M393.946 148.049C393.57 148.37 393.113 148.582 392.625 148.66C392.137 148.739 391.637 148.683 391.179 148.497C390.268 148.111 389.459 147.52 388.815 146.77C386.187 144.016 384.309 140.636 383.36 136.951L384.237 135.394C383.893 133.473 384.216 131.493 385.154 129.782C386.093 128.07 387.588 126.731 389.394 125.985C390.421 125.55 391.56 125.451 392.647 125.703C393.186 125.836 393.679 126.113 394.073 126.503C394.468 126.894 394.75 127.383 394.889 127.92C395.226 129.586 393.837 131.09 392.43 132.047C389.978 133.709 387.144 134.721 384.193 134.99C387.802 137.022 390.923 139.818 393.334 143.183C393.892 143.885 394.303 144.691 394.544 145.554C394.659 145.987 394.665 146.442 394.561 146.877C394.456 147.313 394.245 147.716 393.946 148.049Z" fill="#2F2E41"/>
<path d="M191.962 351.815H460.141C460.369 351.815 460.587 351.724 460.748 351.563C460.909 351.402 461 351.184 461 350.957C461 350.729 460.909 350.511 460.748 350.35C460.587 350.189 460.369 350.099 460.141 350.099H191.962C191.734 350.099 191.516 350.189 191.355 350.35C191.194 350.511 191.103 350.729 191.103 350.957C191.103 351.184 191.194 351.402 191.355 351.563C191.516 351.724 191.734 351.815 191.962 351.815Z" fill="#FDBA21"/>
<path d="M263.185 131.249V131.697C262.219 130.567 261.233 129.446 260.257 128.326C259.848 127.858 259.438 127.39 259.028 126.922C257.291 124.954 255.544 122.992 253.788 121.037C252.022 119.088 250.256 117.139 248.47 115.199C248.041 114.732 247.611 114.264 247.172 113.796C246.821 113.403 246.439 113.038 246.031 112.705C245.618 112.362 245.145 112.101 244.635 111.935C244.049 111.772 243.43 111.766 242.84 111.915C242.166 112.071 241.523 112.315 240.869 112.52C240.195 112.744 239.532 112.958 238.859 113.172C237.512 113.611 236.175 114.05 234.829 114.488C234.812 114.495 234.795 114.498 234.777 114.498C234.76 114.498 234.743 114.494 234.726 114.487C234.71 114.48 234.696 114.471 234.683 114.458C234.671 114.446 234.661 114.431 234.655 114.415L234.653 114.41C234.645 114.392 234.642 114.372 234.643 114.352C234.644 114.332 234.649 114.312 234.658 114.294C234.668 114.277 234.681 114.261 234.697 114.249C234.713 114.237 234.731 114.229 234.751 114.225C235.082 114.118 235.424 114.011 235.766 113.903C237.122 113.455 238.468 113.017 239.825 112.578C240.498 112.354 241.171 112.139 241.845 111.925C242.469 111.688 243.129 111.556 243.796 111.535C244.886 111.614 245.908 112.093 246.665 112.88C247.084 113.27 247.465 113.679 247.846 114.098C248.294 114.585 248.743 115.073 249.192 115.56C250.997 117.528 252.789 119.503 254.569 121.485C256.354 123.473 258.124 125.464 259.877 127.458C260.004 127.605 260.131 127.751 260.257 127.897C261.243 129.008 262.209 130.129 263.185 131.249Z" fill="white"/>
<path d="M245.879 114.5C245.51 114.026 245.019 113.661 244.458 113.445L243.903 113.465C248.258 120.233 253.964 126.031 260.664 130.498C255.736 125.165 250.807 119.833 245.879 114.5Z" fill="white"/>
<path d="M336.767 184.834L314.661 66.6294C314.283 64.6809 313.253 62.9184 311.74 61.6311C310.228 60.3438 308.322 59.608 306.335 59.5444C306.157 59.5404 305.978 59.5404 305.799 59.5444L290.74 60.0838L289.12 60.1433L281.604 60.4131L279.983 60.4686L275.149 60.6432L177.67 64.1381C177.523 64.1461 177.372 64.146 177.225 64.1421L155.382 63.6859L147.298 63.5192L147.04 63.5153L141.074 63.3884L89.0852 62.3093L75.3015 62.0197L68.505 61.8809L66.8764 61.8452L59.1266 61.6865L57.5019 61.6508L49.5733 61.4881L47.9486 61.4524L39.2375 61.2699L37.871 61.2422L30.1013 61.0795L28.8739 61.0557H28.6952C26.6325 61.0641 24.6392 61.8005 23.0676 63.1348C21.4961 64.4691 20.4475 66.3153 20.1072 68.3471L0.114863 191.007C-0.0881582 192.249 -0.0182606 193.521 0.319697 194.734C0.657655 195.947 1.25558 197.072 2.07209 198.031C2.88861 198.99 3.90416 199.761 5.04841 200.289C6.19266 200.818 7.43825 201.091 8.69888 201.091H123.513C125.203 201.096 126.847 201.638 128.208 202.638L130.385 204.249C131.885 205.352 133.698 205.949 135.56 205.955C157.735 200.11 181.049 200.11 203.224 205.955C204.367 205.958 205.5 205.734 206.556 205.297C207.612 204.86 208.571 204.218 209.377 203.408C210.755 202.032 212.594 201.214 214.541 201.111L328.671 195.105C329.909 195.04 331.118 194.712 332.219 194.143C333.319 193.574 334.285 192.776 335.052 191.803C335.818 190.831 336.368 189.706 336.664 188.504C336.959 187.302 336.995 186.051 336.767 184.834Z" fill="#8F5D5D"/>
<path d="M305.49 166.401C305.343 170.407 303.61 174.191 300.671 176.921C297.732 179.651 293.828 181.103 289.817 180.959C283.19 180.726 275.281 180.609 266.697 180.787C238.666 181.386 203.449 185.239 182.265 199.095C179.602 200.84 176.456 201.702 173.275 201.558C173.04 201.544 172.813 201.531 172.579 201.51C169.28 201.209 166.172 199.833 163.733 197.595C152.063 186.931 125.299 174.018 64.0345 173.109C63.7797 173.109 63.5316 173.096 63.2836 173.082C61.2993 172.957 59.3591 172.443 57.5738 171.569C55.7886 170.695 54.1933 169.478 52.8792 167.988C51.565 166.498 50.5578 164.764 49.9151 162.885C49.2724 161.006 49.0068 159.019 49.1335 157.038L55.1545 61.6054L56.057 47.3019L57.6415 22.2793C57.8013 19.7594 58.9156 17.3947 60.7582 15.6657C62.6008 13.9367 65.0334 12.9731 67.5618 12.9707H67.6238L104.122 13.184C119.499 13.8789 132.234 15.8351 142.329 19.0526C145.777 20.1205 149.132 21.4689 152.359 23.0843C156.768 25.2187 160.728 28.1725 164.03 31.7875C166.086 34.0969 168.891 35.6095 171.952 36.06C172.427 36.1308 172.905 36.1745 173.385 36.1907C176.208 36.3074 178.994 35.5111 181.328 33.9203C205.171 17.9656 253.76 16.7547 280.593 17.4427C284.345 17.5301 287.931 19.0095 290.651 21.5926C293.371 24.1756 295.031 27.6775 295.308 31.416L296.396 45.6507L297.478 59.8441L303.719 141.874L305.455 164.695C305.498 165.263 305.509 165.832 305.49 166.401Z" fill="#F2F2F2"/>
<path d="M73.1147 46.5518C95.1095 39.5437 119.648 41.3991 140.485 51.2721C146.43 54.0745 152.045 57.5283 157.226 61.5699C158.692 62.7186 160.778 60.6638 159.296 59.5026C140.158 44.6779 116.111 37.6354 91.9864 39.7902C85.3123 40.3867 78.7233 41.7087 72.3365 43.7328C70.5485 44.3025 71.3127 47.126 73.1147 46.5518Z" fill="#3F3D56"/>
<path d="M194.145 62.7039C214.594 51.9696 239.082 49.6288 261.316 55.722C267.655 57.455 273.78 59.8875 279.58 62.9744C281.242 63.8598 282.722 61.337 281.058 60.4501C259.867 49.1577 234.43 46.5582 211.289 52.853C204.834 54.6122 198.59 57.0689 192.667 60.1795C190.999 61.0553 192.477 63.5794 194.145 62.7039Z" fill="#3F3D56"/>
<path d="M194.145 82.1937C214.594 71.4594 239.082 69.1186 261.316 75.2118C267.655 76.9448 273.78 79.3772 279.58 82.4642C281.242 83.3496 282.722 80.8268 281.058 79.9398C259.867 68.6475 234.43 66.048 211.289 72.3428C204.834 74.102 198.59 76.5587 192.667 79.6693C190.999 80.545 192.477 83.0691 194.145 82.1937Z" fill="#3F3D56"/>
<path d="M281.774 100.638C281.789 100.387 281.729 100.137 281.6 99.9212C281.471 99.7051 281.281 99.5326 281.053 99.4262C264.077 90.5489 244.829 86.9484 225.787 89.088C225.668 89.0975 225.558 89.1166 225.429 89.1262H225.424C225.307 89.1367 225.19 89.1542 225.075 89.1787C213.749 90.4803 202.762 93.8623 192.668 99.1543C192.448 99.2852 192.265 99.471 192.139 99.6935C192.012 99.916 191.946 100.167 191.946 100.423V136.781C191.95 137.005 192.005 137.225 192.106 137.424C192.207 137.624 192.353 137.798 192.531 137.933C192.71 138.068 192.917 138.161 193.137 138.204C193.356 138.248 193.583 138.241 193.8 138.184C194.249 138.055 194.698 137.931 195.157 137.812C205.361 135.053 215.838 133.416 226.398 132.931C226.623 132.922 226.847 132.912 227.082 132.903C235.683 132.534 244.301 132.843 252.854 133.828C253.033 133.838 253.211 133.857 253.389 133.885C253.828 133.933 254.277 133.985 254.717 134.043C254.893 134.062 255.061 134.081 255.223 134.109C256.933 134.324 258.629 134.567 260.33 134.83C262.785 135.221 265.24 135.657 267.696 136.137C267.849 136.166 268.006 136.204 268.164 136.232C272.105 137.015 276.027 137.921 279.93 138.923C280.147 138.979 280.374 138.985 280.594 138.941C280.814 138.896 281.022 138.803 281.2 138.667C281.378 138.531 281.524 138.356 281.625 138.156C281.726 137.956 281.78 137.735 281.783 137.511V100.695C281.785 100.676 281.782 100.656 281.774 100.638Z" fill="#3F3D56"/>
<path d="M228.082 91.0705C227.01 90.546 225.78 90.4381 224.633 90.7679C224.126 90.9577 223.662 91.2462 223.267 91.6166C222.873 91.987 222.556 92.432 222.335 92.9257C221.938 93.8722 221.683 94.8725 221.579 95.8938C221.518 96.2955 221.515 96.8024 221.919 96.9899C222.066 97.0431 222.224 97.0553 222.377 97.025C222.531 96.9947 222.673 96.9232 222.788 96.8181C222.997 96.6126 223.169 96.3728 223.297 96.1093C223.999 95.0185 224.965 94.122 226.105 93.5026C227.246 92.8832 228.525 92.5609 229.823 92.5655L230.904 92.9957C230.054 92.2309 229.105 91.5834 228.082 91.0705Z" fill="#FF6582"/>
<path d="M239.779 99.4505C238.94 98.2174 237.946 96.9009 236.39 96.4983C234.587 96.032 232.736 96.9583 231.165 97.8723C226.495 100.589 221.973 103.551 217.617 106.746L217.622 106.794L227.732 106.174C230.167 106.025 232.685 105.855 234.837 104.831C235.609 104.347 236.473 104.026 237.374 103.887C237.934 103.918 238.481 104.058 238.986 104.301C239.49 104.544 239.942 104.884 240.314 105.302C244.973 109.712 246.321 116.457 251.549 120.332C248.222 113.052 244.285 106.067 239.779 99.4505Z" fill="white"/>
<path d="M227.083 132.902C226.849 132.912 226.625 132.921 226.4 132.931C224.771 132.346 223.102 131.83 221.414 131.382C220.321 131.089 219.209 130.826 218.096 130.602C216.838 130.329 215.569 130.115 214.301 129.93C211.886 129.579 209.451 129.374 207.012 129.316C206.993 129.318 206.974 129.316 206.957 129.31C206.939 129.304 206.923 129.295 206.909 129.283C206.895 129.27 206.884 129.255 206.876 129.238C206.869 129.221 206.865 129.203 206.865 129.184C206.865 129.166 206.869 129.147 206.876 129.13C206.884 129.113 206.895 129.098 206.909 129.086C206.923 129.073 206.939 129.064 206.957 129.058C206.974 129.053 206.993 129.051 207.012 129.053C207.324 129.053 207.636 129.062 207.939 129.082C210.384 129.172 212.821 129.41 215.237 129.793C216.496 129.998 217.755 130.242 219.004 130.514C220.136 130.768 221.268 131.05 222.38 131.362C223.97 131.81 225.538 132.324 227.083 132.902Z" fill="white"/>
<path d="M255.225 134.11C255.059 134.081 254.893 134.061 254.717 134.042C254.044 133.487 253.361 132.96 252.649 132.444C251.761 131.801 250.843 131.197 249.907 130.631C247.832 129.374 245.666 128.273 243.427 127.338C239.888 125.865 236.224 124.711 232.479 123.888C228.208 122.953 223.884 122.276 219.531 121.861C215.179 121.413 210.807 121.14 206.436 120.867C206.25 120.857 206.241 120.584 206.436 120.594C206.982 120.633 207.529 120.662 208.085 120.701C212.505 120.974 216.925 121.286 221.316 121.783C225.67 122.249 229.989 122.998 234.245 124.024C237.879 124.919 241.425 126.135 244.842 127.659C246.808 128.541 248.711 129.553 250.541 130.69C251.702 131.421 252.824 132.2 253.897 133.029C254.347 133.379 254.795 133.73 255.225 134.11Z" fill="white"/>
<path d="M253.39 133.886C253.213 133.858 253.033 133.838 252.854 133.828C252.649 133.662 252.434 133.506 252.219 133.35C250.717 132.276 249.15 131.297 247.526 130.417C246.051 129.616 244.537 128.891 242.988 128.244C239.45 126.767 235.786 125.613 232.04 124.794C227.769 123.86 223.445 123.183 219.092 122.767C214.74 122.319 210.368 122.046 205.997 121.773C205.811 121.754 205.811 121.491 205.997 121.5C206.553 121.539 207.099 121.569 207.646 121.608C212.066 121.88 216.486 122.192 220.877 122.689C225.231 123.155 229.55 123.904 233.806 124.931C237.44 125.823 240.987 127.04 244.403 128.565C245.691 129.15 246.95 129.784 248.18 130.475C250.003 131.475 251.745 132.615 253.39 133.886Z" fill="white"/>
<path d="M268.163 136.235C268.007 136.205 267.851 136.166 267.695 136.137C267.52 135.952 267.354 135.757 267.188 135.562C266.349 134.597 265.519 133.623 264.699 132.639C261.47 128.799 258.406 124.843 255.517 120.809C253.039 117.359 250.687 113.841 248.463 110.255C247.399 108.559 246.374 106.844 245.369 105.109C244.589 103.765 243.828 102.417 243.086 101.065C242.871 100.676 242.666 100.286 242.462 99.8959C241.983 98.9798 241.505 98.0541 240.998 97.1479C240.446 96.0375 239.637 95.0752 238.636 94.3413C238.137 94.0071 237.558 93.8089 236.958 93.7664C236.112 93.7695 235.28 93.9839 234.538 94.39C229.079 96.9289 223.929 100.084 219.189 103.794C214.56 107.39 210.374 111.521 206.719 116.102C206.602 116.238 206.348 116.111 206.455 115.965C206.894 115.42 207.343 114.874 207.792 114.338C211.305 110.188 215.261 106.434 219.589 103.141C219.599 103.131 219.619 103.121 219.628 103.112C220.009 102.81 220.389 102.517 220.78 102.235C223.196 100.458 225.711 98.8177 228.313 97.3233C229.64 96.5534 230.996 95.8225 232.382 95.1307C232.723 94.9553 233.074 94.7799 233.426 94.6142C233.777 94.4388 234.128 94.2732 234.48 94.1074C235.175 93.7533 235.935 93.5444 236.714 93.4936C239.427 93.4546 240.822 96.1832 241.788 98.0249C242.091 98.5999 242.403 99.1748 242.706 99.7497C243.876 101.923 245.096 104.086 246.365 106.22C247.135 107.546 247.936 108.861 248.746 110.167C249.907 112.028 251.097 113.87 252.336 115.702C252.336 115.704 252.337 115.705 252.337 115.706C252.337 115.707 252.338 115.708 252.339 115.709C252.34 115.71 252.341 115.711 252.342 115.711C252.343 115.712 252.344 115.712 252.346 115.712C253.78 117.875 255.273 120 256.815 122.114C259.46 125.73 262.231 129.264 265.129 132.717C266.124 133.906 267.136 135.078 268.163 136.235Z" fill="white"/>
<path d="M233.351 93.1965L233.081 93.3144C232.463 92.2717 231.596 91.3978 230.558 90.7702C229.52 90.1427 228.343 89.7809 227.131 89.7171C223.136 89.4337 219.627 92.0925 219.308 95.6436C219.179 97.1058 219.602 98.5634 220.496 99.7288L220.245 99.8768C219.315 98.663 218.873 97.1451 219.008 95.6223C219.34 91.9244 222.995 89.1555 227.155 89.4506C228.417 89.517 229.643 89.8937 230.724 90.5472C231.804 91.2007 232.707 92.1108 233.351 93.1965Z" fill="#FF6582"/>
<path d="M213.611 100.381C212.562 99.9257 211.42 99.726 210.279 99.7985C209.138 99.8711 208.031 100.214 207.049 100.798C210.635 101.348 214.189 102.085 217.697 103.007C216.244 102.251 215.108 101.065 213.611 100.381Z" fill="white"/>
<path d="M207.029 100.795L206.634 101.08C206.768 100.98 206.906 100.887 207.049 100.798L207.029 100.795Z" fill="white"/>
<path d="M218.919 102.449C218.761 102.293 218.605 102.138 218.447 101.982C217.232 100.662 215.769 99.5927 214.142 98.8358C213.313 98.4873 212.424 98.3042 211.525 98.2967C210.597 98.3184 209.678 98.4964 208.809 98.8234C208.4 98.9686 208 99.1335 207.606 99.3091C207.156 99.5105 206.714 99.7252 206.273 99.9418C205.447 100.348 204.632 100.772 203.827 101.214C202.226 102.094 200.675 103.041 199.175 104.054C198.397 104.58 197.635 105.123 196.889 105.683C196.195 106.204 195.516 106.738 194.85 107.287C194.708 107.403 194.495 107.214 194.637 107.098C194.813 106.952 194.99 106.808 195.168 106.666C195.669 106.263 196.178 105.868 196.696 105.48C197.639 104.773 198.607 104.092 199.599 103.44C201.142 102.424 202.738 101.477 204.387 100.599C205.211 100.16 206.046 99.7401 206.893 99.3385C207.149 99.2173 207.407 99.0987 207.669 98.9865C208.266 98.7189 208.883 98.4958 209.513 98.319C210.418 98.0602 211.364 97.9776 212.299 98.0757C213.195 98.1899 214.065 98.4573 214.87 98.8662C216.465 99.7591 217.905 100.905 219.131 102.26C219.26 102.388 219.048 102.578 218.919 102.449Z" fill="white"/>
<path d="M73.1147 66.0416C95.1095 59.0335 119.648 60.8889 140.485 70.7619C146.43 73.5643 152.045 77.0181 157.226 81.0596C158.692 82.2084 160.778 80.1535 159.296 78.9924C140.158 64.1676 116.111 57.1252 91.9864 59.28C85.3123 59.8765 78.7233 61.1985 72.3365 63.2226C70.5485 63.7922 71.3127 66.6158 73.1147 66.0416Z" fill="#3F3D56"/>
<path d="M73.1147 85.5314C95.1095 78.5233 119.648 80.3786 140.485 90.2517C146.43 93.0541 152.045 96.5079 157.226 100.549C158.692 101.698 160.778 99.6433 159.296 98.4822C140.158 83.6574 116.111 76.615 91.9864 78.7698C85.3123 79.3662 78.7233 80.6883 72.3365 82.7124C70.5485 83.282 71.3127 86.1056 73.1147 85.5314Z" fill="#3F3D56"/>
<path d="M73.1147 105.021C95.1095 98.0131 119.648 99.8685 140.485 109.741C146.43 112.544 152.045 115.998 157.226 120.039C158.692 121.188 160.778 119.133 159.296 117.972C140.158 103.147 116.111 96.1048 91.9864 98.2596C85.3123 98.856 78.7233 100.178 72.3365 102.202C70.5485 102.772 71.3127 105.595 73.1147 105.021Z" fill="#3F3D56"/>
<path d="M73.1147 124.511C95.1095 117.503 119.648 119.358 140.485 129.231C146.43 132.034 152.045 135.487 157.226 139.529C158.692 140.678 160.778 138.623 159.296 137.462C140.158 122.637 116.111 115.595 91.9864 117.749C85.3123 118.346 78.7233 119.668 72.3365 121.692C70.5485 122.262 71.3127 125.085 73.1147 124.511Z" fill="#3F3D56"/>
<path d="M73.1147 144.001C95.1095 136.993 119.648 138.848 140.485 148.721C146.43 151.523 152.045 154.977 157.226 159.019C158.692 160.168 160.778 158.113 159.296 156.952C140.158 142.127 116.111 135.084 91.9864 137.239C85.3123 137.836 78.7233 139.158 72.3365 141.182C70.5485 141.751 71.3127 144.575 73.1147 144.001Z" fill="#3F3D56"/>
<path d="M152.359 23.0843V69.8201C152.359 70.7489 150.734 71.5263 148.543 71.7396C148.524 71.7385 148.506 71.7408 148.488 71.7465C148.123 71.774 147.737 71.7946 147.344 71.7946C146.136 71.8168 144.935 71.621 143.796 71.2167C143.693 71.1754 143.59 71.1273 143.486 71.086C143.39 71.031 143.287 70.9828 143.19 70.9277C142.646 70.6044 142.329 70.226 142.329 69.8201V19.0526C145.777 20.1205 149.132 21.4689 152.359 23.0843Z" fill="#B46C10"/>
<path d="M173.384 33.924H171.951V200.581H173.384V33.924Z" fill="#E6E6E6"/>
<path d="M329.23 148.012C330.246 147.92 331.229 147.605 332.111 147.092C332.992 146.578 333.75 145.878 334.331 145.04C334.913 144.203 335.303 143.248 335.475 142.243C335.646 141.239 335.595 140.209 335.325 139.226L365.071 125.359L382.979 96.4294L368.903 90.7538L356.822 114.066L326.245 134.415C324.622 134.978 323.261 136.115 322.422 137.612C321.582 139.109 321.322 140.862 321.69 142.538C322.058 144.214 323.028 145.697 324.418 146.706C325.808 147.715 327.52 148.18 329.23 148.012Z" fill="#FFB6B6"/>
<path d="M394.025 68.7155C394.025 68.7155 397.531 69.8583 393.683 76.649C390.603 82.0855 375.598 113.4 369.473 119.549C370.118 120.58 370.4 121.796 370.276 123.005C370.153 124.215 369.63 125.348 368.79 126.228L354.651 115.023C354.381 110.948 357.081 110.544 358.682 110.681L361.934 99.1688L373.279 70.769L391.506 67.8445L394.025 68.7155Z" fill="#B46C10"/>
<path d="M394.331 15.4856C394.999 12.7865 399.848 10.7935 391.541 7.02511C389.525 6.11056 389.609 2.96104 387.904 1.55058C386.198 0.140109 383.701 -0.513801 381.719 0.47206C379.949 1.35243 378.951 3.34474 378.739 5.30809C378.637 7.28414 378.865 9.26333 379.415 11.1644L379.254 11.3994C382.544 13.9141 385.835 16.4287 389.125 18.9434C390.335 19.8674 391.915 20.835 393.271 20.1417C394.805 19.3567 393.917 17.1568 394.331 15.4856Z" fill="#2F2E41"/>
</g>
<defs>
<clipPath id="clip0_134_1745">
<rect width="461" height="352" fill="white"/>
</clipPath>
</defs>
</svg>
